<?xml version="1.0" standalone="no"?><!DOCTYPE svg PUBLIC "-//W3C//DTD SVG 1.1//EN" "http://www.w3.org/Graphics/SVG/1.1/DTD/svg11.dtd"><svg t="1480590790382" class="icon" style="" viewBox="0 0 1024 1024" version="1.1" xmlns="http://www.w3.org/2000/svg" p-id="1238" xmlns:xlink="http://www.w3.org/1999/xlink" width="64" height="64"><defs><style type="text/css"></style></defs><path d="M999.225757 888.844787l-61.10059-181.554986c-3.181459-9.481955-10.861372-16.784268-20.579711-19.518542l-213.848483-60.527538c-7.363711-2.076288-15.210423-1.354857-22.064528 2.037403L511.994883 713.291492l-169.618119-84.009346c-6.853082-3.393283-14.70184-4.113691-22.065552-2.037403l-213.853599 60.527538c-9.69378 2.740414-17.393135 10.035564-20.59813 19.518542l-61.101613 181.554986c-3.094478 9.226129-1.526773 19.367093 4.220115 27.258831 5.728468 7.891737 14.962783 12.559037 24.780383 12.559037l916.487358 0c9.822716 0 19.057031-4.6673 24.780383-12.559037C1000.772996 908.21188 1002.344794 898.070916 999.225757 888.844787L999.225757 888.844787zM96.130408 868.158652l42.595121-126.58707 186.953949-52.91107 172.652222 85.514629c8.612145 4.26821 18.753109 4.26821 27.321252 0l172.675758-85.514629 186.930413 52.91107 42.620703 126.58707L96.130408 868.158652 96.130408 868.158652zM511.994883 656.347572c126.358873 0 229.121328-128.96114 229.121328-287.456944 0-158.494781-102.763478-287.456944-229.121328-287.456944-126.33943 0-229.109048 128.968303-229.109048 287.456944C282.885835 527.387455 385.655454 656.347572 511.994883 656.347572L511.994883 656.347572zM511.994883 141.963269c91.101881 0 168.027901 103.906511 168.027901 226.927359 0 123.008568-76.92602 226.935546-168.027901 226.935546-91.056855 0-168.027901-103.926978-168.027901-226.935546C343.966982 245.86978 420.938028 141.963269 511.994883 141.963269L511.994883 141.963269zM876.813776 268.328281" p-id="1239" fill="#d81e06"></path></svg>