<?xml version="1.0" standalone="no"?><!DOCTYPE svg PUBLIC "-//W3C//DTD SVG 1.1//EN" "http://www.w3.org/Graphics/SVG/1.1/DTD/svg11.dtd"><svg t="1480590630531" class="icon" style="" viewBox="0 0 1024 1024" version="1.1" xmlns="http://www.w3.org/2000/svg" p-id="8374" xmlns:xlink="http://www.w3.org/1999/xlink" width="64" height="64"><defs><style type="text/css"></style></defs><path d="M512 0C229.22752 0 0 229.23264 0 512c0 282.77248 229.22752 512 512 512s512-229.22752 512-512C1024 229.23264 794.77248 0 512 0zM516.224 784.9472c-0.04096 0.24576-0.00512 0.4864-0.04608 0.73216L237.1584 785.67936c-17.37728 0-32.45056-11.41248-40.33024-30.52544-14.32576-34.7904-6.44096-94.9504 36.38272-137.91232 53.74464-53.92384 125.92128-91.12576 161.98656-107.67872l0-0.768c-34.19648-31.92832-57.11872-84.7104-66.57024-153.68192-6.7584-49.33632 5.7856-95.2576 35.32288-129.29536 28.14464-32.4352 68.32128-50.29888 113.1264-50.29888 44.76416 0 86.66112 18.67776 114.92864 51.26144 29.55776 34.05312 42.15808 79.63136 35.48672 128.3328-9.47712 69.23776-32.16384 121.99424-65.8944 153.66656l0 0.83456c9.23136 4.23424 20.87424 9.87136 33.93024 16.75776l-17.19808 35.0208-18.8416 2.75456c-14.25408-7.10656-25.8048-12.22144-32.52736-15.06304-9.26208-3.9168-15.2832-13.0304-15.2832-23.1168l0-28.7488c0-7.77216 3.58912-15.11936 9.728-19.87072 28.10368-21.74464 48.22016-67.584 56.63744-129.06496 4.66944-34.13504-3.7376-65.57696-23.68-88.56576-19.05152-21.95456-46.50496-34.05312-77.29152-34.05312-30.16192 0-56.97024 11.7504-75.49952 33.09056-19.91168 22.95296-28.25728 54.75328-23.49568 89.52832 8.37632 61.1072 28.72832 106.94144 57.31328 129.06496 6.13376 4.75136 9.728 12.09856 9.728 19.87072l0 28.6976c0 10.09152-6.02112 19.2-15.27808 23.1168-23.52128 9.93792-104.64768 46.80192-161.35168 103.69536-30.14144 30.2336-31.0272 70.26176-25.87136 82.80064l282.03008 0L516.224 784.9472zM831.1296 632.83712l-74.76736 72.59136 17.64864 102.49728c1.30048 7.54688-6.65088 13.30688-13.46048 9.74336l-92.416-48.39424-92.41088 48.39424c-6.80448 3.56352-14.76096-2.19648-13.46048-9.74336l17.64864-102.49728-74.76736-72.59136c-5.504-5.34528-2.46784-14.65856 5.14048-15.75936l103.32672-14.95552 46.208-93.25568c3.4048-6.86592 13.2352-6.86592 16.64 0l46.208 93.25568 103.3216 14.95552C833.59232 618.17856 836.6336 627.49184 831.1296 632.83712z" p-id="8375" fill="#d81e06"></path></svg>