<?xml version="1.0" standalone="no"?><!DOCTYPE svg PUBLIC "-//W3C//DTD SVG 1.1//EN" "http://www.w3.org/Graphics/SVG/1.1/DTD/svg11.dtd"><svg t="1480590292338" class="icon" style="" viewBox="0 0 1024 1024" version="1.1" xmlns="http://www.w3.org/2000/svg" p-id="6024" xmlns:xlink="http://www.w3.org/1999/xlink" width="64" height="64"><defs><style type="text/css"></style></defs><path d="M318.002 562.435c14.735 14.742 38.636 14.742 53.374 0 14.739-14.733 14.739-38.631 0-53.374l-157.952-157.955h684.784c20.842 0 37.742-16.896 37.742-37.74 0-20.842-16.898-37.738-37.742-37.738h-684.784l157.952-157.954c14.739-14.74 14.739-38.636 0-53.375s-38.635-14.74-53.374 0l-222.379 222.383c-7.373 7.371-11.054 17.025-11.054 26.686 0 9.657 3.685 19.317 11.054 26.687l222.379 222.383zM933.185 687.497c-0.439-1.085-0.94-2.148-1.483-3.197-0.023-0.050-0.045-0.101-0.070-0.15-1.726-3.29-3.974-6.372-6.737-9.137l-222.38-222.386c-14.74-14.74-38.636-14.74-53.375 0-7.372 7.372-11.055 17.028-11.055 26.687 0 9.657 3.687 19.319 11.055 26.687l157.952 157.954h-684.783c-20.842 0-37.738 16.896-37.738 37.74 0 20.842 16.896 37.738 37.738 37.738h684.784l-157.954 157.954c-7.373 7.371-11.055 17.025-11.055 26.686 0 9.657 3.687 19.322 11.054 26.687 14.74 14.74 38.636 14.74 53.375 0l222.383-222.375c11.054-11.049 13.819-27.254 8.29-40.889z" p-id="6025" fill="#d81e06"></path></svg>