<?xml version="1.0" standalone="no"?><!DOCTYPE svg PUBLIC "-//W3C//DTD SVG 1.1//EN" "http://www.w3.org/Graphics/SVG/1.1/DTD/svg11.dtd"><svg t="1480590494960" class="icon" style="" viewBox="0 0 1024 1024" version="1.1" xmlns="http://www.w3.org/2000/svg" p-id="6908" xmlns:xlink="http://www.w3.org/1999/xlink" width="64" height="64"><defs><style type="text/css"></style></defs><path d="M504.79104 949.33504c219.83232 0 373.43744-144.71168 403.83488-354.39616 53.21216-367.17056-155.81696-508.10368-175.95904-520.27392-100.6848 243.60448-205.5424 135.06048-227.87072 135.06048 19.95776-39.52128 105.43616-102.144 90.24512-93.14304-3.73248 2.20672-168.51968-23.168-349.53216 141.2096-118.11328 107.24864-138.77248 242.8928-138.77248 321.74592C106.74176 783.7696 284.94848 949.33504 504.79104 949.33504L504.79104 949.33504zM298.33216 477.312c0 0-49.40288 141.06112 53.1968 130.47808 102.61504-10.5984 125.40928-123.58144 273.6128-123.58144 0 0-123.83232 178.3296-45.91616 211.87584 77.89568 33.54112 98.41664-7.08608 170.99776-56.4992-9.4976 79.4368-41.87648 240.12288-281.27232 222.47936C229.54496 844.416 115.92704 646.78912 298.33216 477.312L298.33216 477.312z" p-id="6909" fill="#d81e06"></path></svg>