<?xml version="1.0" standalone="no"?><!DOCTYPE svg PUBLIC "-//W3C//DTD SVG 1.1//EN" "http://www.w3.org/Graphics/SVG/1.1/DTD/svg11.dtd"><svg t="1480589083939" class="icon" style="" viewBox="0 0 1024 1024" version="1.1" xmlns="http://www.w3.org/2000/svg" p-id="3922" xmlns:xlink="http://www.w3.org/1999/xlink" width="64" height="64"><defs><style type="text/css"></style></defs><path d="M504.211105 65.639976c239.317551 0 434.166307 195.352223 434.166307 434.163237 0 239.315504-194.848757 434.166307-434.166307 434.166307l0-12.992919c231.821833 0 421.176458-189.352579 421.176458-421.173388 0-231.818763-189.354626-420.670945-421.176458-420.670945L504.211105 65.639976zM504.211105 933.969521c-238.315734 0-433.662841-194.850803-433.662841-434.166307 0-238.811014 195.347107-434.163237 433.662841-434.163237l0 13.492292c-231.319389 0-420.174642 188.852182-420.174642 420.670945 0 231.820809 188.855252 421.173388 420.174642 421.173388L504.211105 933.969521zM281.382087 403.381164 281.382087 283.97361c0-23.983227-55.957453-32.475646-61.451584 0l0 182.357258c0 33.472346 3.496637 33.973766 22.981411 60.954257l66.948785 92.427062c26.478048 36.973076 24.481577 37.971823 24.481577 83.934644l0 105.418958 128.397299 0L462.739575 693.154873c0-43.468001 4.498454-56.453756-18.488073-92.928482l-84.928275-136.394437c-18.48705-29.477358-11.991102-30.477129-46.964638-30.477129C275.886933 433.355849 281.382087 439.350376 281.382087 403.381164zM512.208243 242.002706c80.436984 0 145.884578 65.451688 145.884578 145.886625 0 80.43903-65.446571 145.890718-145.884578 145.890718l0-26.980491c65.446571 0 118.90511-53.459562 118.90511-118.910227 0-65.446571-53.458539-118.906134-118.90511-118.906134L512.208243 242.002706zM512.208243 533.780049c-80.443124 0-145.392368-65.450664-145.392368-145.890718 0-80.434937 64.948221-145.886625 145.392368-145.886625l0 26.980491c-65.452711 0-118.410853 53.460586-118.410853 118.906134 0 65.450664 52.958142 118.910227 118.410853 118.910227L512.208243 533.780049zM746.521826 403.381164 746.521826 283.97361c0-23.983227 56.45785-32.475646 61.953004 0l0 182.357258c0 33.472346-3.497661 33.973766-22.977317 60.954257l-66.952878 92.427062c-26.976398 36.973076-24.484647 37.971823-24.484647 83.934644l0 105.418958L564.665988 809.065789 564.665988 693.154873c0-43.468001-3.999081-56.453756 18.986423-92.928482l85.430718-136.394437c18.48398-29.477358 11.995195-30.477129 46.467311-30.477129C752.02005 433.355849 746.521826 439.350376 746.521826 403.381164z" p-id="3923" fill="#d81e06"></path></svg>